<svg width="29" height="29" viewBox="0 0 29 29" fill="none" xmlns="http://www.w3.org/2000/svg">
<circle cx="14.5" cy="14.5" r="14.5" fill="#EFEFF4"/>
<path d="M14.5 13.8574C16.2536 13.8574 17.88 14.6165 19.0801 15.9951C20.287 17.3821 20.9659 19.2976 21 21.4043C20.3676 21.7353 17.7399 23 14.5 23C11.5041 23 8.68221 21.7288 8 21.3984C8.03546 19.2941 8.71402 17.3807 9.91992 15.9951C11.12 14.6165 12.7464 13.8574 14.5 13.8574ZM14.5 7C16.2952 7.00004 17.7508 8.40698 17.751 10.1426C17.751 11.8783 16.2953 13.2861 14.5 13.2861C12.7047 13.2861 11.249 11.8783 11.249 10.1426C11.2492 8.40695 12.7048 7 14.5 7Z" fill="#666666"/>
</svg>
