<svg width="15" height="19" viewBox="0 0 15 19" fill="none" xmlns="http://www.w3.org/2000/svg">
<path fill-rule="evenodd" clip-rule="evenodd" d="M7.5 0C3.35795 0 0 3.46664 0 7.74275C0 12.8347 4.87636 15.2722 5.48727 15.8396C6.11114 16.4188 6.62659 17.7175 6.83455 18.4538C6.93545 18.8114 7.21909 18.9923 7.5 19C7.78159 18.9916 8.06455 18.8107 8.16545 18.4538C8.37341 17.7175 8.88886 16.4196 9.51273 15.8396C10.1236 15.2722 15 12.8347 15 7.74275C15 3.46664 11.642 0 7.5 0ZM7.5 9.85441C6.37023 9.85441 5.45455 8.90909 5.45455 7.74275C5.45455 6.57641 6.37023 5.63109 7.5 5.63109C8.62977 5.63109 9.54545 6.57641 9.54545 7.74275C9.54545 8.90909 8.62977 9.85441 7.5 9.85441Z" fill="url(#paint0_linear_3_3971)"/>
<defs>
<linearGradient id="paint0_linear_3_3971" x1="-7.5" y1="9.5" x2="10.9812" y2="24.0904" gradientUnits="userSpaceOnUse">
<stop stop-color="#F61D80"/>
<stop offset="0.512351" stop-color="#8774FF"/>
<stop offset="1" stop-color="#343DFF"/>
</linearGradient>
</defs>
</svg>
