<svg width="39" height="39" viewBox="0 0 39 39" fill="none" xmlns="http://www.w3.org/2000/svg">
<rect x="0.5" y="0.5" width="38" height="38" rx="19" stroke="#CE68F0"/>
<path fill-rule="evenodd" clip-rule="evenodd" d="M16.0001 16C16.0001 15.2044 16.3161 14.4413 16.8787 13.8787C17.4413 13.3161 18.2044 13 19.0001 13C19.7957 13 20.5588 13.3161 21.1214 13.8787C21.684 14.4413 22.0001 15.2044 22.0001 16H16.0001ZM14.0001 16C14.0001 14.6739 14.5268 13.4021 15.4645 12.4645C16.4022 11.5268 17.674 11 19.0001 11C20.3261 11 21.5979 11.5268 22.5356 12.4645C23.4733 13.4021 24.0001 14.6739 24.0001 16H27.0001C27.139 16 27.2764 16.0289 27.4035 16.085C27.5306 16.141 27.6446 16.2229 27.7383 16.3254C27.832 16.428 27.9034 16.5489 27.9477 16.6806C27.9921 16.8122 28.0086 16.9516 27.9961 17.09L27.1611 26.272C27.0932 27.0174 26.7492 27.7105 26.1965 28.2152C25.6439 28.7199 24.9225 28.9998 24.1741 29H13.8261C13.0776 28.9998 12.3562 28.7199 11.8036 28.2152C11.2509 27.7105 10.9069 27.0174 10.8391 26.272L10.0041 17.09C9.99156 16.9516 10.008 16.8122 10.0524 16.6806C10.0968 16.5489 10.1681 16.428 10.2618 16.3254C10.3555 16.2229 10.4695 16.141 10.5966 16.085C10.7238 16.0289 10.8611 16 11.0001 16H14.0001Z" fill="#CE68F0"/>
</svg>
