<svg width="18" height="18" viewBox="0 0 18 18" fill="none" xmlns="http://www.w3.org/2000/svg">
<path fill-rule="evenodd" clip-rule="evenodd" d="M6.00006 5C6.00006 4.20435 6.31613 3.44129 6.87874 2.87868C7.44135 2.31607 8.20441 2 9.00006 2C9.79571 2 10.5588 2.31607 11.1214 2.87868C11.684 3.44129 12.0001 4.20435 12.0001 5H6.00006ZM4.00006 5C4.00006 3.67392 4.52684 2.40215 5.46452 1.46447C6.40221 0.526784 7.67398 0 9.00006 0C10.3261 0 11.5979 0.526784 12.5356 1.46447C13.4733 2.40215 14.0001 3.67392 14.0001 5H17.0001C17.139 4.99999 17.2764 5.02893 17.4035 5.08496C17.5306 5.14099 17.6446 5.22289 17.7383 5.32544C17.832 5.42799 17.9034 5.54894 17.9477 5.68058C17.9921 5.81221 18.0086 5.95165 17.9961 6.09L17.1611 15.272C17.0932 16.0174 16.7492 16.7105 16.1965 17.2152C15.6439 17.7199 14.9225 17.9998 14.1741 18H3.82606C3.07761 17.9998 2.35625 17.7199 1.8036 17.2152C1.25094 16.7105 0.906918 16.0174 0.839058 15.272L0.00405833 6.09C-0.00844394 5.95165 0.00801583 5.81221 0.0523884 5.68058C0.096761 5.54894 0.168073 5.42799 0.261779 5.32544C0.355484 5.22289 0.469528 5.14099 0.59664 5.08496C0.723752 5.02893 0.861144 4.99999 1.00006 5H4.00006Z" fill="#CE68F0"/>
</svg>
