<svg width="20" height="12" viewBox="0 0 20 12" fill="none" xmlns="http://www.w3.org/2000/svg">
<path d="M12.667 0C13.4034 0.000175543 13.9998 0.596599 14 1.33301V10.667C13.9998 11.4034 13.4034 11.9998 12.667 12H1.33301C0.596599 11.9998 0.000175543 11.4034 0 10.667V1.33301C0.000175736 0.596599 0.596599 0.000175736 1.33301 0H12.667ZM19.333 1.33301C19.7012 1.33301 20 1.63181 20 2V10L19.9863 10.1348C19.924 10.4383 19.655 10.667 19.333 10.667C19.1642 10.6669 19.0119 10.6016 18.8945 10.498L18.8926 10.5L15.333 7.33301V4.66699L18.8926 1.5L18.8945 1.50098C19.0119 1.3977 19.1644 1.33309 19.333 1.33301Z" fill="black"/>
</svg>
