<svg width="20" height="20" viewBox="0 0 20 20" fill="none" xmlns="http://www.w3.org/2000/svg">
<path d="M7.27539 0.995885C7.56488 0.995936 7.7998 1.23216 7.7998 1.52323C7.79961 1.81413 7.56476 2.04954 7.27539 2.0496H2.62109C1.75299 2.05063 1.05002 2.75791 1.04883 3.63065V17.365C1.05004 18.2375 1.75301 18.9451 2.62109 18.9461H17.3291C18.1972 18.9451 18.9011 18.2375 18.9023 17.365V12.6853C18.9023 12.3944 19.1365 12.1582 19.4258 12.158C19.7153 12.158 19.9502 12.3942 19.9502 12.6853V17.365C19.9484 18.8195 18.7759 19.9981 17.3291 19.9998H2.62109C1.17434 19.9981 0.00182801 18.8195 0 17.365V3.63065C0.00180219 2.17612 1.17433 0.997532 2.62109 0.995885H7.27539ZM9.67578 12.3621L6.94824 13.1219L7.70312 10.3797L9.67578 12.3621ZM18.3193 4.17069L10.665 11.867L8.19629 9.38456L15.8506 1.68924L18.3193 4.17069ZM17.1484 0.384557C17.6606 -0.128739 18.4899 -0.128934 19.002 0.384557L19.6162 1.0037C20.1273 1.51858 20.1273 2.3521 19.6162 2.86698L19.0605 3.42557L16.5928 0.944127L17.1484 0.384557Z" fill="black"/>
</svg>
